<?xml version="1.0" encoding="UTF-8" standalone="no"?>
<!-- Created with Inkscape (http://www.inkscape.org/) -->

<svg
   xmlns:dc="http://purl.org/dc/elements/1.1/"
   xmlns:cc="http://creativecommons.org/ns#"
   xmlns:rdf="http://www.w3.org/1999/02/22-rdf-syntax-ns#"
   xmlns:svg="http://www.w3.org/2000/svg"
   xmlns="http://www.w3.org/2000/svg"
   xmlns:xlink="http://www.w3.org/1999/xlink"
   xmlns:sodipodi="http://sodipodi.sourceforge.net/DTD/sodipodi-0.dtd"
   xmlns:inkscape="http://www.inkscape.org/namespaces/inkscape"
   width="11in"
   height="8.5in"
   viewBox="0 0 11 8.5"
   version="1.1"
   id="SVGRoot"
   inkscape:export-filename="C:\Users\usuario\Documents\EXAMEN DE HTML\index.html\bitmap.png"
   inkscape:export-xdpi="77.272728"
   inkscape:export-ydpi="77.272728"
   inkscape:version="0.92.2 (5c3e80d, 2017-08-06)"
   sodipodi:docname="iniciales HC2.svg">
  <sodipodi:namedview
     id="base"
     pagecolor="#ffffff"
     bordercolor="#ffffff"
     borderopacity="0"
     inkscape:pageopacity="0.0"
     inkscape:pageshadow="2"
     inkscape:zoom="0.35"
     inkscape:cx="528"
     inkscape:cy="513.19216"
     inkscape:document-units="in"
     inkscape:current-layer="layer1"
     showgrid="false"
     inkscape:window-width="1366"
     inkscape:window-height="705"
     inkscape:window-x="-8"
     inkscape:window-y="-8"
     inkscape:window-maximized="1" />
  <defs
     id="defs10">
    <linearGradient
       inkscape:collect="always"
       id="linearGradient859">
      <stop
         style="stop-color:#003e80;stop-opacity:1;"
         offset="0"
         id="stop855" />
      <stop
         style="stop-color:#003e80;stop-opacity:0;"
         offset="1"
         id="stop857" />
    </linearGradient>
    <linearGradient
       inkscape:collect="always"
       xlink:href="#linearGradient859"
       id="linearGradient861"
       x1="-4.1117657"
       y1="4.0918437"
       x2="4.5460575"
       y2="4.0918437"
       gradientUnits="userSpaceOnUse"
       gradientTransform="matrix(1.3753714,0,0,1.1626343,-1.1955299,-0.58758389)" />
  </defs>
  <metadata
     id="metadata13">
    <rdf:RDF>
      <cc:Work
         rdf:about="">
        <dc:format>image/svg+xml</dc:format>
        <dc:type
           rdf:resource="http://purl.org/dc/dcmitype/StillImage" />
        <dc:title></dc:title>
      </cc:Work>
    </rdf:RDF>
  </metadata>
  <g
     id="layer1"
     inkscape:groupmode="layer"
     inkscape:label="Capa 1">
    <rect
       style="opacity:0.89499996;fill:url(#linearGradient861);fill-opacity:1;fill-rule:evenodd;stroke:#cb0097;stroke-width:0.13972411;stroke-linecap:round;stroke-linejoin:round;stroke-miterlimit:4;stroke-dasharray:1.67668961, 1.67668961;stroke-dashoffset:0;stroke-opacity:0.02247189;paint-order:fill markers stroke"
       id="rect26"
       width="11.755751"
       height="9.1976728"
       x="-6.7747512"
       y="-0.42910197"
       transform="matrix(0.94877817,-0.315943,0.66942135,0.74288293,0,0)"
       inkscape:export-xdpi="96"
       inkscape:export-ydpi="96" />
    <path
       style="opacity:0.89499996;fill:#ff0000;fill-opacity:0.69411765;fill-rule:evenodd;stroke:#cb0000;stroke-width:0.01215919;stroke-linecap:round;stroke-linejoin:miter;stroke-miterlimit:4;stroke-dasharray:0.0243184, 0.01215919;stroke-dashoffset:0;stroke-opacity:1;paint-order:fill markers stroke"
       id="path40"
       d="m -1.8511528,1.6093397 c -0.073109,0.1421824 -0.064741,0.075303 -0.050304,0.1984034 0.00108,0.00926 0.0076,0.018994 0.00326,0.027766 -0.016319,0.032935 -0.037765,0.064815 -0.063806,0.094405 -0.00919,0.010447 -0.047981,0.03447 -0.04,0.023537 0.012865,-0.017632 0.036935,-0.029755 0.055406,-0.04463 0.049804,-0.021494 -0.011059,0.00251 -0.010266,0.018739 6.841e-4,0.013969 0.013499,0.037619 0.032752,0.034877 0.018664,-0.00265 0.023702,-0.034713 0.00644,-0.040462 -0.2412717,-0.080367 -0.3480088,0.00269 -0.2307103,-0.072991 0.019488,-0.010054 0.044711,-0.016097 0.058445,-0.030188 0.014386,-0.014734 0.021801,-0.095644 0.020216,-0.1055171 -0.00118,-0.00741 -0.023164,-0.01159 -0.018315,-0.018199 0.069526,-0.095083 0.066519,-0.063212 0.067501,-0.036124 0.017682,-0.040827 -0.043763,-0.098979 0.00532,-0.1341702 0.00928,-0.00665 0.028772,0.00248 0.039242,-0.0032 0.00653,-0.00354 -0.025509,2.906e-4 -0.02348,-0.00535 0.012706,-0.035007 0.040965,-0.066161 0.061452,-0.099243 0.017618,-0.046065 0.2446243,0.00175 0.2971462,-0.00959 0.095985,-0.020727 -0.017903,-0.022742 0.095947,-0.014878 0.0806,0.023281 0.00166,0.00594 0.087968,0.00852 0.016002,4.778e-4 0.031868,0.00959 0.047205,0.00633 0.018791,-0.004 0.027252,-0.021917 0.045912,-0.026234 0.0186,-0.00432 0.070571,0.013743 0.085135,0.018085 0.053476,0.023253 0.079849,-0.020271 0.1266137,-0.022884 0.017744,-9.878e-4 0.1063843,0.024048 0.1293483,0.0284 0.0559695,0.00681 0.27531036,-0.021209 0.00985,-0.00501 -0.017143,0.00105 0.0346248,0.00959 0.0509564,0.00574 0.0336843,-0.00793 0.0607419,-0.02612 0.0911143,-0.039185 -0.011915,0.00581 -0.0474745,0.023509 -0.0357625,0.01746 0.0947107,-0.048794 0.1365129,-0.041341 0.24658264,-0.051318 0.0260156,-0.00236 0.051344,-0.01377 0.0772128,-0.010733 0.0170154,0.002 -0.0318325,0.00945 -0.0477497,0.014195 -0.0104895,-0.00371 -0.037131,-0.00384 -0.031434,-0.011103 0.0708908,-0.090629 0.22237002,-0.00262 0.28890743,0.041643 0.0650193,0.043265 0.0437542,0.1389286 0.0384306,0.1946757 -3.734e-5,0.00996 -7.627e-5,0.01993 -1.1402e-4,0.029888 -0.00615,0.00712 -0.0181573,0.013004 -0.0184107,0.02135 -2.5095e-4,0.00841 0.0166034,0.013685 0.017111,0.02206 6.0024e-4,0.00991 -0.0145126,0.018086 -0.0141015,0.027994 0.0221175,0.041804 0.016288,0.020242 0.0176807,0.064646 -0.0708094,0.042159 7.5538e-4,0.049111 0.001703,0.094184 0.00125,0.059897 -0.0917794,0.0226 0.0102638,0.090276 -0.009545,0.010221 -0.0256045,0.018568 -0.0285813,0.030652 -0.002593,0.010566 0.012801,0.019988 0.0135343,0.030694 7.2131e-4,0.010447 -0.009671,0.020214 -0.009291,0.030673 3.5398e-4,0.010566 0.0114342,0.020045 0.0113495,0.030601 -0.0156226,0.040347 -0.0125761,0.019988 -0.009601,0.061043 0.0274411,0.026802 -0.0367853,0.039876 -0.0307049,0.061059 0.004086,0.014224 0.0353732,0.017262 0.0435319,0.030549 0.002861,0.0047 -0.0144169,0.056833 -0.0139429,0.061116 0.001133,0.010709 0.009573,0.020357 0.0143859,0.030552 -0.007954,0.010197 -0.0227828,0.018909 -0.0238602,0.030549 -0.001015,0.011043 0.0180944,0.019476 0.0182521,0.030546 1.4255e-4,0.010995 -0.0162552,0.019589 -0.0174592,0.030546 -0.001149,0.010483 0.0104609,0.020045 0.0107429,0.030549 9.8166e-4,0.03775 -0.0709613,0.1126978 -0.0789345,0.1232935 -0.007442,0.00488 -0.0322739,0.013515 -0.0222752,0.014679 0.0233542,0.00269 0.0498917,-8.55e-5 0.0697942,-0.0092 0.007669,-0.00353 -0.0130552,-0.019277 -0.018727,-0.014196 -0.006427,0.00577 0.0122372,0.01306 0.0117866,0.020415 -0.005412,0.091988 8.5581e-4,0.073722 -0.0617932,0.1257947 -0.004086,0.011186 -0.0118848,0.022033 -0.0122657,0.033599 -2.5858e-4,0.00793 0.005387,0.015558 0.010419,0.022627 0.003994,0.00558 0.0188226,0.00879 0.0163819,0.014849 -0.0117296,0.028911 -0.0485014,0.05152 -0.0552816,0.081219 -0.0265853,0.116468 0.15912182,-0.063284 -0.0426392,0.094654 -0.006116,0.00993 -0.0153365,0.019192 -0.0183478,0.029853 -7.4027e-4,0.00262 0.009164,0.00274 0.008431,0.00536 -0.007442,0.026858 -0.0190442,0.053237 -0.033399,0.078641 -0.0126743,0.02243 -0.0369607,0.042185 -0.0417867,0.066103 -0.003734,0.01851 0.0116029,0.036475 0.0173963,0.054714 -0.004438,0.00659 -0.0152098,0.012577 -0.0133371,0.019761 0.002274,0.00871 0.0234809,0.011615 0.0238291,0.020499 0.003583,0.095932 -0.0456462,0.04016 -0.02912,0.1339403 0.0189175,0.1072813 0.0440831,-0.00423 0.0178074,0.079892 -0.0271567,0.026773 -0.0589481,0.051438 -0.0814591,0.080311 -0.006242,0.00801 -0.004623,0.018399 -0.002551,0.027426 0.004212,0.01837 0.002156,-0.011079 0.007769,-0.00903 0.0149245,0.00548 0.0459466,0.00484 0.0445874,0.016751 -0.001972,0.017348 -0.0338613,0.025126 -0.050792,0.037683 0.0568304,0.066385 0.0282969,0.1094433 -0.0327496,0.1823054 -0.005798,0.00693 -0.0383073,0.013259 -0.0328444,0.00619 0.008556,-0.011043 0.0361267,-0.032165 0.0442518,-0.020952 0.009883,0.013656 -0.0198672,0.027257 -0.0297862,0.040903 -0.0230371,0.019959 -0.0499043,0.037931 -0.0691011,0.059846 -0.056702,0.064727 -0.0498665,0.1026355 -0.13220972,0.1510151 -0.0289304,0.017007 -0.0643858,0.027739 -0.0987572,0.038447 -0.00608,0.0019 -0.022149,0.00292 -0.019836,-0.00152 0.014544,-0.027711 0.04082,-0.051565 0.0612327,-0.077348 0.0424705,0.161855 0.0415711,0.017489 -0.19176633,0.1687512 -0.01933,0.012521 0.055038,-0.00883 0.07836,-4.437e-4 0.016098,0.0058 -0.034311,0.010077 -0.052351,0.00979 -0.012517,-2e-4 -0.022498,-0.014422 -0.034166,-0.011186 -0.014069,0.00393 -0.016034,0.018256 -0.024083,0.027369 -0.02516,0.01034 -0.056736,0.015218 -0.075445,0.031043 -0.00694,0.00585 0.037657,7.141e-4 0.030864,0.00667 -0.024621,0.021577 -0.1730391,0.050305 -0.187289,0.052495 -0.00507,7.814e-4 0.011882,-0.012037 0.00821,-0.00942 -0.015337,0.010852 -0.02893,0.022855 -0.043403,0.034296 -0.1221521,-0.030653 -0.037004,-0.021209 -0.1477113,-0.00815 -0.018791,0.00222 -0.038139,9.791e-4 -0.057072,0.00254 -0.014544,0.0012 -0.028677,0.00716 -0.043203,0.00577 -0.1114512,-0.010792 0.042854,-0.020386 -0.068293,-0.00983 -0.059553,0.025496 -0.1155737,-0.025013 -0.1710934,-0.022656 -0.020851,8.838e-4 -0.034191,0.018937 -0.054687,0.021777 -0.091175,0.012634 0.00317,-0.04821 -0.08151,0.02419 -0.039638,-0.057897 -0.157021,-0.076974 -0.2038741,-0.1336858 -0.00742,-0.00897 0.00333,-0.021465 -0.00177,-0.031222 -0.049074,-0.093568 -0.095351,-0.081439 -0.067995,-0.1885743 -0.013753,-0.011162 -0.038513,-0.04824 -0.041257,-0.03351 -0.00317,0.016978 0.038823,0.025894 0.039486,0.043013 3.495e-4,0.00905 -0.030927,0.00471 -0.037936,-0.00283 -0.073296,-0.079083 -0.082074,-0.1196054 -0.054515,-0.1993717 -0.032419,-0.027597 0.050187,-0.036663 0.039176,-0.055982 -0.00887,-0.015587 -0.055063,-0.00951 -0.060827,-0.025809 0.023417,-0.016921 0.059477,-0.031123 0.047319,-0.060738 -0.0051,-0.012435 -0.021231,-0.021066 -0.031833,-0.031607 -0.00268,-0.01059 -0.00884,-0.02101 -0.00805,-0.031759 7.785e-4,-0.010709 0.00871,-0.020527 0.012611,-0.030884 0.010583,-0.027966 0.011598,-0.05856 0.0308,-0.084099 0.015812,-0.02101 0.050998,-0.031515 0.070641,-0.05082 0.1208909,-0.1187849 -0.033414,-0.018113 0.1180993,-0.1059351 -0.00827,-0.028251 -0.017301,-0.038391 0.065362,-0.052911 0.017713,-0.00313 -0.043497,0.041549 -0.030705,0.032281 0.030832,-0.022315 0.048827,-0.054086 0.085141,-0.071712 0.010806,-0.00524 0.022752,0.0092 0.034147,0.013798 0.014196,-0.02257 0.028361,-0.045137 0.04256,-0.067706 0.087518,-0.00101 0.1608932,-0.043734 0.2455051,-0.051417 0.016984,-0.00155 0.031846,0.021521 0.046622,0.01536 0.015748,-0.00655 -0.00675,-0.031799 0.00887,-0.038508 0.031707,-0.013599 0.1360661,-0.030833 0.1096609,-0.01235 -0.047617,0.033322 -0.1202763,0.041245 -0.1804127,0.061869 0.170241,-0.1145203 0.1655829,-0.068721 0.359825,-0.09926 0.1376157,-0.021634 0.1072114,-0.049917 0.2332801,0.019505 0.010774,-0.0073 0.021516,-0.014594 0.032274,-0.021889 0.00296,0.00232 0.0045,0.00735 0.00887,0.00698 0.087204,-0.00724 0.016731,-0.034241 0.1156309,0.018313 0.016383,0.00871 -0.044562,-0.012408 -0.048511,-0.026688 0.048003,-0.017404 0.14849075,-0.057455 0.19935555,-0.057581 0.03465,-8.55e-5 0.0623294,0.023281 0.096425,0.027682 0.24826505,0.032062 -0.003423,-0.00726 0.10608009,-0.020783 0.0169206,-0.00209 0.0337699,0.00449 0.050656,0.0067 0.0477782,-0.048927 0.0252236,-0.050713 0.12045978,-0.036665 0.007216,0.00107 0.009798,0.012037 0.016731,0.010304 0.0224657,-0.00564 0.0348782,-0.027086 0.0585018,-0.02923 0.0906924,-0.00827 0.0742125,0.039772 0.0823913,0.00815 0.0496928,-0.087383 -2.377e-4,-0.036146 0.21524033,-0.057776 0.0548319,-0.00551 0.10824074,-0.018198 0.16346947,-0.021067 0.08250118,-0.00429 0.16855848,0.023338 0.24518827,-0.016638 0.0155588,-0.00813 0.008614,-0.026802 0.0129285,-0.040188 -4.7665e-4,-0.00827 0.0101648,-0.024844 -0.001426,-0.024786 -0.0131819,8.55e-5 -0.0301663,0.029257 -0.0184728,0.0249 0.0444892,-0.016552 0.0789404,-0.044419 0.12159188,-0.063262 0.001552,-6.855e-4 0.0714168,-0.01661 0.0801284,-0.019733 0.0216753,-0.00777 0.0420376,-0.017319 0.0630551,-0.02595 0.23947821,-0.070077 0.0649983,0.033431 0.0519045,0.022429 -0.0117866,-0.00991 0.0308316,-0.014393 0.0429018,-0.024076 0.0248116,-0.019931 0.0380757,-0.047179 0.0669339,-0.064105 0.0364782,-0.021408 0.083284,-0.031814 0.12454843,-0.048205 0.0383266,-0.015218 0.0761414,-0.031095 0.11420852,-0.046643 0.008021,-1.07e-5 0.0199637,0.00488 0.0240196,-3.24e-5 0.007165,-0.00871 0.006779,-0.021066 9.6488e-4,-0.030288 -0.002525,-0.004 -0.0214211,0.00744 -0.017523,0.00406 0.072938,-0.063717 0.0437954,-0.010995 0.1652756,-0.061795 0.022783,-0.00954 0.035442,-0.027937 0.053165,-0.04191 2.739e-4,0.00297 -0.00276,0.010531 8.213e-4,0.00897 0.047807,-0.020812 0.070152,-0.063711 0.115957,-0.086699 0.018693,-0.00936 0.045978,-0.0046 0.066568,-0.011674 0.047044,-0.016154 0.085492,-0.042768 0.1286794,-0.063702 0.016982,-0.062888 -0.0052,-0.040014 0.095588,-0.076342 0.012703,-0.00458 -0.032789,0.025921 -0.036254,0.01607 -0.016101,-0.045596 0.1506962,-0.099076 0.2041277,-0.1170315 0.02361,-0.005 0.066761,-0.03229 0.07083,-0.01499 0.00428,0.017972 -0.05035,0.03735 -0.068582,0.024559 -0.017267,-0.012123 0.028359,-0.030379 0.050669,-0.037125 0.031623,-0.00957 0.069379,-0.00209 0.1022812,-0.00914 0.1204754,-0.025837 0.1021217,-0.024246 0.1562765,-0.084655 0.019239,0.089248 0.1706373,-0.044057 0.124199,-0.054037 -0.1699753,-0.036525 -0.060745,0.066968 -0.037437,0.035875 0.014163,-0.018909 0.013743,-0.041759 0.021135,-0.062546 0.00268,-0.00747 0.00596,-0.014791 0.00897,-0.022174 -0.00159,-0.00101 -0.00612,-0.0018 -0.00487,-0.00303 0.020279,-0.01766 0.040567,-0.035334 0.060846,-0.052998 -0.00159,-0.00954 -0.010077,-0.019817 -0.0047,-0.028605 0.027856,-0.045437 0.091792,-0.066381 0.093445,-0.1223594 0.00972,0.00849 0.034375,0.015133 0.029215,0.025467 -0.012577,0.025213 -0.068641,-0.00523 -0.068951,-0.014478 -5.386e-4,-0.015784 0.020153,-0.028765 0.022972,-0.044413 0.0026,-0.014536 -0.00587,-0.02903 -0.00705,-0.043654 -0.00277,-0.035915 -0.00319,-0.071908 -0.00478,-0.1078626 0.026589,-0.00364 0.05749,5.35e-5 0.079724,-0.010935 0.00201,-0.00101 0.1082608,-0.117533 0.1159312,-0.1290399 0.00369,-0.00551 -0.00227,-0.014308 0.00453,-0.018029 0.03471,-0.019022 0.075848,-0.031177 0.1137707,-0.046763 0.1063781,-0.32522339 -0.05702,0.1017812 0.1323812,-0.19008487 0.018282,-0.028164 0.0068,-0.0620852 0.016478,-0.0923266 0.00378,-0.0118772 0.025221,-0.0202719 0.023577,-0.0323865 -9.229e-4,-0.006672 -0.018316,0.007071 -0.027285,0.005086 -0.00755,-0.00169 -0.00856,-0.009399 -0.012871,-0.0140816 0.00545,-0.0463979 -0.0092,-0.0939728 -0.023006,-0.13930355 -0.00394,-0.01306 -0.023988,-0.0505901 -0.016604,-0.038303 0.023451,0.0390525 0.039753,0.0802263 0.064907,0.11873617 0.00967,0.0148199 -0.012141,-0.0315035 -0.018224,-0.0472558 -0.048496,0.0597222 -0.089346,0.004324 -0.1511584,0.0129465 -0.1502053,0.0209816 0.081561,0.0372268 -0.1150645,0.0135149 -0.020783,-0.001464 -0.045072,0.003977 -0.062398,-0.004376 -0.0092,-0.004411 0.023006,-0.0185389 0.028737,-0.0118174 0.01397,0.0163839 0.018223,0.0388619 0.00991,0.0571088 -0.00512,0.0113287 -0.032369,0.008648 -0.043805,0.0173483 -0.1703612,0.12921898 0.1053831,-0.0264605 -0.1525848,0.1071872 -0.041859,0.0161257 -0.1358161,0.0426702 -0.1623636,0.0812792 -0.00688,0.00999 0.048563,-0.026802 0.039845,-0.017574 -0.010421,0.011018 -0.038461,0.011018 -0.045324,0.023366 -0.00394,0.00704 0.016,0.010019 0.024021,0.015019 -0.033955,0.020783 -0.067911,0.041578 -0.10186,0.06237 -0.00646,0.01065 -0.00874,0.023112 -0.019331,0.031932 -0.019298,0.016069 -0.1702026,0.1248039 -0.228013,0.1109026 -0.029601,-0.00712 0.052791,-0.03664 0.08303,-0.031023 0.021076,0.00393 -0.021513,0.026973 -0.032277,0.040448 -0.1095916,0.1081068 0.00972,0.00619 -0.1704443,0.102701 -0.031866,0.017064 -0.053479,0.042648 -0.085426,0.059642 -0.021169,0.011269 -0.048101,0.015616 -0.071762,0.02399 -0.010614,0.00375 -0.026454,0.00458 -0.03096,0.012378 -0.00487,0.00839 0.00571,0.017632 0.00856,0.026432 0.012141,-0.00681 0.034618,-0.031335 0.03638,-0.020415 0.00227,0.014309 -0.024181,0.023224 -0.03388,0.035873 -0.00386,0.00506 -0.00151,0.012095 -0.00646,0.016638 -0.019457,0.017858 -0.049813,0.02963 -0.065385,0.049345 -0.1082962,0.1371342 0.087014,-0.012635 -0.09402,0.1101296 -0.2148536,0.1547995 0.04571,-0.047108 -0.081595,0.089893 -0.020346,0.021889 -0.056676,0.034886 -0.075933,0.057283 -0.013971,0.01624 -0.011603,0.037319 -0.020787,0.05522 -0.02741,0.053437 -0.034029,0.048828 -0.0918117,0.090705 -3.1371e-4,0.00175 -0.002626,0.00655 -9.397e-4,0.00524 0.0111238,-0.00865 0.0243368,-0.038941 0.0301353,-0.027938 0.028772,0.054738 -0.0368969,0.082971 -0.0315608,0.1070562 0.001368,0.00619 0.009572,0.010531 0.0143532,0.015784 -0.1878339,-0.2019296 -0.0282969,0.1638965 -0.0571224,0.1251447 -0.008868,-0.011924 -0.0139152,-0.026688 -0.009827,-0.039871 0.001619,-0.00524 0.0199637,-0.00655 0.0226251,-0.00151 0.006813,0.012975 -0.001225,0.027682 -0.001552,0.04152 -3.9165e-4,0.016638 -3.9929e-4,0.033303 -5.9898e-4,0.049954 -0.0107714,0.02683 0.0248116,0.052167 0.0197733,0.078508 -0.002114,0.011079 -0.0189175,0.018539 -0.0225622,0.0294 -0.002844,0.00844 0.005714,0.017319 0.003893,0.025893 -0.002903,0.014055 -0.0118143,0.027143 -0.0177453,0.040697 -0.0024,0.014935 -0.004782,0.029874 -0.007165,0.044811 0.0130837,0.01289 0.0331834,0.023395 0.0392646,0.038713 0.004145,0.010471 -0.0105876,0.020755 -0.0113495,0.03164 -6.5276e-4,0.00936 0.009192,0.01837 0.007216,0.027625 -0.002131,0.00999 -0.0151461,0.017431 -0.0188864,0.0272 -0.003507,0.0092 -0.001636,0.019023 -0.002467,0.028538 -0.004497,0.010077 -0.008995,0.020159 -0.0134638,0.030223 0.0665732,0.022627 -0.020723,0.043421 -0.008994,0.062688 0.0103343,0.016978 0.0491953,0.016154 0.0646149,0.031043 0.0102915,0.00996 -0.0360696,-0.023906 -0.0477623,-0.014763 -0.0110953,0.00865 0.0238291,0.016269 0.0341692,0.025381 0.0176187,0.015558 0.0330282,0.032346 0.0495435,0.048521 -0.0285822,0.093681 -0.0262061,0.031133 0.00615,0.1101594 0.00421,0.01028 0.0218,0.034094 0.00719,0.031672 -0.018918,-0.00315 -0.013873,-0.028109 -0.030293,-0.035502 -0.0112219,-0.00506 0.00271,0.020185 0.0117296,0.027113 0.00665,0.00515 0.019235,0.00274 0.028868,0.00409 0.037227,0.044098 0.062802,0.06475 0.069642,0.1208716 6.645e-4,0.00545 -0.020091,0.00423 -0.018663,0.00963 0.00348,0.013231 0.02386,0.04684 0.030166,0.034164 0.00821,-0.016467 -0.027474,-0.032848 -0.022308,-0.049915 0.00399,-0.013174 0.017745,0.023792 0.026618,0.035683 0.042357,0.0529 0.092676,0.080056 0.050219,0.1428042 -0.010362,0.015275 0.013844,-0.036457 0.00134,-0.0509 -0.021102,-0.024359 -0.089492,-0.026263 -0.092844,-0.054781 -0.00241,-0.020443 0.063714,-0.012719 0.086396,-7.48e-5 0.048428,0.027 0.070814,0.071634 0.1062262,0.1074503 0.051885,0.053008 -0.039082,0.088842 -0.037647,0.1345678 2.441e-4,0.00776 0.02215,-0.022598 0.024843,-0.015104 0.00629,0.017404 -0.016034,0.035731 -0.01105,0.053357 0.00529,0.018851 0.02804,0.032909 0.040248,0.050061 0.00831,0.011615 0.014045,0.024048 0.021068,0.036071 0.00235,0.018227 -0.00201,0.037562 0.00705,0.054698 0.050568,0.095862 0.2228992,0.1165335 0.1081107,0.2465414 -0.012065,0.013685 0.00986,-0.031536 0.014767,-0.047301 -0.00705,0.017745 -0.024902,0.034992 -0.021101,0.053228 0.00227,0.011019 0.024113,0.014167 0.036607,0.020812 0.030163,0.01607 0.056089,0.036025 0.086966,0.051392 0.012493,0.00622 0.032638,0.00412 0.042085,0.012635 0.019868,0.017886 0.027218,0.041309 0.040819,0.061962 -0.022561,-0.00667 -0.046901,-0.010852 -0.067642,-0.020045 -0.00537,-0.00235 0.012678,-4.824e-4 0.018761,5.921e-4 0.035566,0.0063 0.072877,0.00781 0.1075443,0.016297 0.00503,0.00122 -1.51e-5,0.00852 0.00403,0.01096 0.010924,0.00659 0.025347,0.00956 0.038008,0.014366 0.1180867,0.054488 -0.072475,-0.028079 0.1402864,0.032152 0.033947,0.00959 0.059621,0.030734 0.093003,0.041309 0.019331,0.00613 0.041909,0.00449 0.062507,0.00796 0.1281785,0.021634 0.045022,0.018142 0.1560643,0.016695 0.090823,-0.054702 0.1568118,0.051661 0.1903593,0.051965 0.020346,1.848e-4 0.020405,-0.026802 0.038066,-0.033996 0.00858,-0.00348 0.018945,0.00419 0.027914,0.00716 0.033066,0.010995 0.065343,0.02314 0.098015,0.034705 0.09724,-0.014111 0.218121,-0.046116 0.319527,-0.03809 0.035894,0.00283 0.068766,0.016381 0.1043368,0.020812 0.122745,0.015276 0.1158599,0.00804 0.233074,-0.010531 0.1231377,-0.00639 0.2467091,-0.00577 0.369981,-0.00945 0.036128,-0.00109 0.073356,0.00184 0.1082659,-0.00488 0.037345,-0.00718 0.069027,-0.024984 0.1044299,-0.036102 0.029567,-0.00928 0.060242,-0.016723 0.090363,-0.02507 -0.017141,-0.016638 0.1232862,-0.034081 0.1007022,-0.061054 -0.010261,-0.012237 -0.0283,0.02135 -0.046809,0.026773 -0.014859,0.00438 0.026178,-0.032835 0.035323,-0.023423 0.010672,0.010995 -0.014859,0.024558 -0.02231,0.036827 0.03961,-0.040685 0.079212,-0.081371 0.1188091,-0.1220555 0.038335,-0.043551 0.066249,-0.092755 0.1149932,-0.1306556 0.076628,-0.059579 0.181094,-0.098796 0.2571917,-0.1587204 0.1160429,-0.091384 0.165463,-0.2145784 0.2921019,-0.300675 0.249409,-0.1695632 0.1208714,0.013599 0.2126136,-0.1457229 0.00587,-0.016269 0.029215,-0.06341 0.017678,-0.048772 -0.023635,0.029965 -0.032613,0.1261326 -0.054528,0.095512 -0.025699,-0.035909 0.02278,-0.079063 0.038612,-0.1177594 0.014574,-0.035649 0.033267,-0.07042 0.052506,-0.1049276 0.021169,-0.037969 0.053698,-0.072939 0.068666,-0.1123772 0.01616,-0.042548 0.015841,-0.087426 0.023736,-0.1311383 -0.019583,-0.083085 0.016537,-0.1672435 0.00461,-0.2502267 -0.00545,-0.038223 -0.034475,-0.073455 -0.040147,-0.111664 -0.034325,-0.2310794 0.039241,0.017517 0.01746,-0.1669738 -0.00176,-0.014963 -0.014356,-0.02825 -0.021546,-0.042381 0.00487,-0.027824 2.668e-4,-0.050716 -0.00218,-0.078282 -5.95e-5,-6.985e-4 0.040122,0.0423 -0.027025,0.033167 -0.026908,-0.00367 -0.040047,-0.02666 -0.060074,-0.039975 -0.1406539,-0.0081 -0.1515931,-0.013827 -0.2982041,4.426e-4 -0.033007,0.0032 -0.065175,0.00999 -0.097218,0.016523 -0.00858,0.00175 -0.015656,0.00991 -0.024239,0.00815 -0.00654,-0.00134 0.021362,-0.011758 0.014926,-0.010054 -0.029282,0.00767 -0.056466,0.01888 -0.084693,0.028306 -0.034685,-0.0067 -0.06854,-0.02399 -0.1040649,-0.020102 -0.041414,0.00455 -0.07323,0.029054 -0.1098609,0.043562 -0.043814,0.017348 -0.09152,0.030442 -0.1314649,0.052016 -0.034962,0.018866 -0.1948213,0.1372453 -0.2189801,0.166869 -0.037093,0.045486 -0.057389,0.096944 -0.086079,0.1454134 C 3.6819955,2.6130902 3.67626,2.6064062 3.593502,2.7339244 3.570689,2.7690584 3.56099,2.8086334 3.532656,2.8416583 3.507687,2.8707523 3.460575,2.8880593 3.436094,2.9173553 3.415529,2.9419423 3.412551,2.9721052 3.400763,2.9994813 3.3476943,3.0581653 3.2946521,3.1168602 3.2416065,3.1755565 3.16115,3.2699145 3.0718474,3.3607362 3.0001235,3.4586275 2.8908046,3.6078283 2.7939931,3.7616079 2.6992916,3.9157998 2.5095028,4.2248108 2.2661247,4.6552261 2.1239698,4.9822915 2.0559435,5.1388061 2.0206239,5.3020713 1.9488933,5.4577422 1.869202,5.6306814 1.7632677,5.7969055 1.670455,5.9664872 1.215929,6.726378 1.4529432,6.251618 1.1860254,6.9715723 1.1426957,7.088443 1.0869701,7.2029331 1.0465781,7.320339 1.0166014,7.407426 1.0072254,7.4977803 0.9751453,7.5844863 0.89883275,7.790759 0.80075639,7.9458097 0.68909611,8.1421504 0.64293388,8.242725 0.4433436,8.1962045 0.48950601,8.0956254 v 0 C 0.86615835,7.4865598 0.46947935,8.1785994 0.73922215,7.5377683 0.77586566,7.4507173 0.84256778,7.3713201 0.88342861,7.2852311 0.93853316,7.1691318 0.97095907,7.0479507 1.0267291,6.9320118 1.1243772,6.7290146 1.4774175,6.1166725 1.5753424,5.9443495 1.651123,5.7703402 1.7204138,5.5948268 1.8026876,5.4223207 1.9201374,5.1760575 2.1943689,4.6942261 2.315602,4.4574582 2.413193,4.2668653 2.5090766,4.0757421 2.5964676,3.8826515 2.6691774,3.7220117 2.7098642,3.5539111 2.7957466,3.3966105 2.8531946,3.291388 2.9479421,3.1985477 3.024039,3.0995172 3.0562156,3.0357592 3.0899947,2.9723965 3.1205754,2.90824 c 0.017334,-0.036384 0.023669,-0.075687 0.047212,-0.1102557 0.022024,-0.032352 0.059344,-0.05818 0.087731,-0.087909 0.102522,-0.107386 0.1797213,-0.2259291 0.2988635,-0.3253574 0.074254,-0.088591 0.2667516,-0.3314972 0.3723855,-0.3927607 0.058874,-0.034144 0.1350778,-0.049552 0.2047394,-0.071036 0.2182694,-0.067315 0.1666695,-0.055774 0.3427537,-0.072785 -0.024466,0.00503 -0.048949,0.010019 -0.073398,0.015077 -0.014196,0.00292 0.027981,-0.00999 0.042664,-0.00871 0.025095,0.0022 0.045936,0.019732 0.071183,0.018711 0.043117,-0.00172 0.080957,-0.024928 0.124079,-0.026547 0.1344149,-0.00512 0.2670973,0.039463 0.4028689,0.019732 0.2106268,0.063344 0.1128017,0.012946 0.2497387,0.1320012 0.028862,0.025097 0.078315,0.042383 0.088751,0.073958 0.00587,0.017745 -0.050459,0.022742 -0.050761,0.040969 -9.23e-4,0.058337 0.115317,0.041514 -0.00227,0.048105 0.035138,0.056293 0.0042,-0.00542 0.00764,0.087308 0.00117,0.030271 0.013466,0.059966 0.014767,0.090231 0.00176,0.039939 -0.00646,0.079848 -0.00571,0.1198014 0.00487,0.2566262 0.027881,0.035496 -0.011662,0.291726 0.011939,0.059857 0.051415,0.1201335 0.03586,0.1795685 -0.011226,0.042857 -0.081796,0.065968 -0.1102368,0.1045641 -0.017964,0.024388 -0.027604,0.052979 -0.026144,0.080504 5.345e-4,0.010102 0.034291,0.010506 0.031463,0.020415 -0.041313,0.145683 -0.014196,0.1364103 -0.1145317,0.140368 -0.1366803,0.082067 -0.267354,0.1588199 -0.3807162,0.2590965 -0.059487,0.052618 -0.1091217,0.1105845 -0.1672115,0.1639899 -0.2892752,0.2659471 -0.1080453,0.066812 -0.3047896,0.2979648 -0.043545,0.035229 -0.091428,0.061936 -0.095353,0.1141081 -6.41e-4,0.00852 0.035054,0.00996 0.027377,0.016495 -0.027856,0.023677 -0.074363,0.032222 -0.1078313,0.051874 -0.084239,0.049469 0.012191,0.042616 -0.1304111,0.024814 -0.042681,0.013138 -0.087163,0.023559 -0.1279486,0.039394 -0.049955,0.019392 -0.088223,0.05611 -0.1434176,0.065949 -0.052078,0.00928 -0.1065006,-0.012209 -0.1601763,-0.011841 -0.1340332,9.011e-4 -0.2435283,0.05694 -0.3716144,-5.999e-4 -0.067139,-0.00203 -0.1681143,-0.0073 -0.2344333,1.145e-4 -0.020976,0.00235 -0.1625348,0.037744 -0.1915096,0.035886 -0.037261,-0.00238 -0.068515,-0.024048 -0.1057187,-0.026887 -0.038092,-0.0029 -0.076016,0.00679 -0.1140241,0.010197 -0.035499,0.01096 -0.068271,0.02863 -0.1064948,0.032898 -0.091159,0.010161 -0.079221,-0.0157 -0.1429905,-0.038051 -0.051449,-0.018023 -0.1186757,-0.0038 -0.1685364,-0.024099 -0.036111,-0.00469 -0.072534,-0.00827 -0.1083414,-0.013997 -0.028804,-0.00463 -0.056038,-0.014139 -0.085277,-0.017036 -0.039476,-0.00392 -0.082703,0.00772 -0.1194745,-0.00325 -0.02408,-0.00715 -0.024525,-0.034045 -0.044871,-0.045689 C 1.7148257,4.1786413 1.6101346,4.1946143 1.565788,4.1961493 1.547564,4.1803073 1.53461,4.1603813 1.511084,4.1485873 1.496099,4.1410673 1.46696,4.1525173 1.456942,4.1415673 1.449052,4.1329473 1.485393,4.1378973 1.49964,4.1360573 1.470266,4.1293573 1.440866,4.1226293 1.411475,4.1159263 1.385683,4.1109763 1.35182,4.1177663 1.333077,4.1042283 1.306077,4.0847243 1.30424,4.0534193 1.289834,4.0280133 1.271585,4.0469223 1.281784,4.0418683 1.248235,4.0028033 1.178143,3.9212533 1.347097,4.0836033 1.189101,3.9076403 1.105569,3.8146123 1.110031,3.8856653 1.11949,3.8090423 1.11763,3.7800953 1.12764,3.7494743 1.11391,3.7221953 c -0.0047,-0.0093 -0.02329,0.013174 -0.026649,0.022771 -0.00147,0.0042 0.016352,0.00639 0.017935,0.00219 0.00564,-0.014906 0.00526,-0.031552 -0.00123,-0.04627 C 1.081785,3.6505303 1.023147,3.6107203 1.01109,3.5570373 0.99819,3.5356293 0.9907781,3.5121043 0.9723901,3.4928523 0.960731,3.4806433 0.9266298,3.4799903 0.9235556,3.4653693 0.9192846,3.4450123 0.9551474,3.4282573 0.954482,3.4076743 0.95350874,3.3780923 0.9303047,3.3510583 0.9188655,3.3226103 c -0.003482,-0.00865 -0.0153994,-0.018454 -0.009122,-0.02629 0.005387,-0.00675 0.008712,0.014224 0.0130552,0.02135 0.0363843,0.0063 0.0776248,0.00449 0.1091543,0.018879 0.011814,0.00539 0.010969,0.033271 -0.00222,0.029927 -0.0594944,-0.015037 -0.11807783,-0.038137 -0.16087215,-0.071207 -0.15232798,-0.1177253 -0.0253813,-0.092384 0.016731,-0.056065 -0.008868,0.00506 -0.0181573,0.020527 -0.0266491,0.015133 -0.0705527,-0.044845 -0.0939534,-0.1019282 -0.0984874,-0.1652846 -2.6773e-4,-0.00375 0.006813,0.011508 0.0101371,0.00861 0.004975,-0.00432 -5.2246e-4,-0.011162 -7.8356e-4,-0.01675 -0.11217418,-0.085264 -0.0294061,-0.00613 -0.071734,-0.086435 -0.002509,-0.00474 -0.0747947,-0.096281 -0.0637079,-0.1222118 0.00302,-0.00704 0.0294061,-0.020611 0.0249693,-0.013004 -0.0211988,-0.00687 0.005613,0.00296 -0.0144497,-0.036683 -0.0147341,-0.029141 -0.0438591,-0.054902 -0.0513776,-0.085408 -0.002836,-0.011531 0.020692,-0.019534 0.0226561,-0.031154 0.0210402,-0.1250226 -0.054242,0.062259 0.00203,-0.06304 -0.008811,-0.027228 -0.009348,-0.032314 -0.0219598,-0.058404 -0.004271,-0.00885 -0.0181254,-0.017319 -0.0141015,-0.026234 0.005538,-0.012209 0.0342229,-0.014649 0.0383803,-0.027143 0.003734,-0.011186 -0.0125191,-0.021207 -0.0187597,-0.03182 0.00853,-0.013344 0.0170481,-0.02666 0.0256045,-0.040004 -0.008306,-0.015645 -0.02592,-0.030223 -0.0249391,-0.046939 0.001452,-0.024928 0.0563908,-0.05286 0.0326028,-0.071176 -0.0163819,-0.012635 -0.0571828,-0.00639 -0.0650671,-0.022627 -0.0116029,-0.023907 0.1041,-0.024162 0.0570461,-0.064037 -0.004271,-0.021378 -0.0190131,-0.086069 -0.015115,-0.1061222 0.008147,-0.041812 0.0428859,-0.079312 0.0526932,-0.1209427 0.001821,-0.00773 -0.001846,-0.030708 -0.004824,-0.023196 -0.007769,0.019704 -0.006754,0.040671 -0.0101086,0.061005 -0.00516,-0.1424237 -0.007031,0.043225 0.023069,-0.098721 0.002962,-0.013969 -0.005034,-0.028079 -0.005638,-0.042196 -2.0917e-4,-0.00497 9.7327e-4,0.018938 0.004472,0.014594 0.0288356,-0.035666 0.0410643,-0.0772 0.0671169,-0.1138616 0.0323788,-0.00815 0.0146712,-0.00129 0.0419763,-0.044169 0.0475668,-0.074689 0.0935036,-0.1598449 0.18173086,-0.2167359 0.0149883,-0.00965 0.0361233,-0.01289 0.0541834,-0.019364 0.00653,-0.014934 0.013845,-0.029679 0.019583,-0.044763 0.00584,-0.015303 9.732e-4,-0.034104 0.015115,-0.046362 0.00752,-0.00651 0.029628,0.010077 0.035266,0.00267 0.011913,-0.015587 -0.00769,-0.037295 0.00333,-0.053209 0.00795,-0.011472 0.03118,-0.012662 0.046783,-0.018995 0.00789,-0.029769 0.015807,-0.059536 0.023736,-0.089305 0.09657,-0.035671 0.063791,-0.00793 0.094394,-0.08549 0.018693,-0.00911 0.041221,0.018283 0.063774,0.016751 0.017242,-0.00116 0.024776,-0.01766 0.039829,-0.023792 0.1330624,-0.054134 0.098773,7.144e-4 0.1128226,-0.1002756 0.046012,-0.041934 0.06682,-0.067996 0.1503287,-0.091405 0.017938,-0.00503 -0.042992,0.022089 -0.03299,0.033828 0.00978,0.011472 0.01965,-0.023735 0.034794,-0.031705 0.00881,-0.00464 0.026018,0.00265 0.032403,-0.00367 0.027856,-0.0275964 0.042362,-0.0609413 0.063548,-0.0914152 0.016537,-5.602e-4 0.036498,0.00552 0.049612,-0.00169 0.023702,-0.0130314 0.032789,-0.035707 0.050157,-0.0530865 0.00453,-0.004575 -0.016797,0.0189089 -0.011729,0.0146232 0.023073,-0.0194496 0.044435,-0.0399182 0.065914,-0.0602811 0.010261,-0.009733 0.013869,-0.0247006 0.029282,-0.0299646 0.022628,-0.007729 0.049863,-0.003674 0.074799,-0.005511 0.00897,-0.004722 0.1464315,-0.0742544 0.1611404,-0.0913211 0.018727,-0.0217493 0.00993,-0.0936238 0.04983,-0.10929684 0.087705,-0.0344478 0.150598,-0.0290364 0.2338031,-0.0263759 0.1110364,0.00577 -0.00478,0.004877 0.086012,-0.007812 0.018853,-0.002615 0.038654,-5.319e-5 0.057465,-0.002788 0.026966,-0.003922 0.051466,-0.0168073 0.078969,-0.017092 0.035482,-3.5171e-4 0.069211,0.0114117 0.1042806,0.0152467 0.028074,0.003066 0.056567,0.003674 0.08485,0.005477 0.070402,0.0574868 0.056357,0.0426188 0.13701,0.15341412 0.00503,0.006871 -8.264e-4,0.0163258 0.00478,0.0229104 0.00428,0.005026 0.02069,0.002487 0.021798,0.008327 0.00109,0.005936 -0.020027,0.006871 -0.017838,0.0126345 0.00403,0.0107091 0.021202,0.0161829 0.031807,0.0242752 0.00394,0.0206696 0.01084,0.0411304 0.011755,0.0619647 4.699e-4,0.0107568 -0.013433,0.17538362 -0.013718,0.17592582 -0.016319,0.029627 -0.06312,0.045979 -0.085442,0.073546 -0.1789293,0.2209664 0.073968,-0.00377 -0.1598121,0.1870441 -0.00109,0.016355 0.00487,0.03372 -0.00327,0.049038 -0.020061,0.038008 -0.084511,0.095575 -0.130787,0.1199972 -0.013659,0.00721 -0.040961,4.779e-4 -0.048437,0.011364 -0.049712,0.072288 0.1138244,0.00158 -0.035038,0.052248 0.00159,-0.00693 -0.00428,-0.018227 0.00495,-0.020812 0.00285,-8.115e-4 0.00963,0.017915 0.017427,0.038307 0.034089,0.089113 0.073993,0.095058 -0.022721,0.1768685 -0.011813,0.018227 -0.019868,0.037952 -0.035499,0.054663 -0.011478,0.012265 -0.027058,0.00477 -0.032772,0.01766 -0.00554,0.012464 -0.00285,0.027142 -0.012678,0.038158 -0.00378,0.0042 -0.013911,-4.415e-4 -0.02085,-6.627e-4 -0.00713,0.018822 -0.014289,0.037677 -0.021454,0.056513 -0.0052,0.015928 -0.00747,0.032477 -0.015589,0.047771 -0.00218,0.00409 -0.011151,0.00451 -0.014129,0.00833 -0.011352,0.014594 -0.015396,0.031842 -0.027948,0.045938 -0.014733,0.016552 -0.090715,0.097654 -0.1393014,0.1096255 -0.019927,0.00492 -0.042052,-0.00199 -0.063086,-0.00297 -0.034417,0.01729 -0.066182,0.03765 -0.1032536,0.051889 -0.029878,0.011472 -0.064949,0.014565 -0.095856,0.024587 -0.00361,0.00116 -0.00638,0.010161 -0.00411,0.00787 0.00805,-0.00829 0.030767,-0.03365 0.021638,-0.02595 -0.091487,0.077174 -0.039073,0.088505 -0.094207,0.073115 -0.034232,-0.00238 -0.069471,-0.013515 -0.1026957,-0.00718 -0.012451,0.00237 0.0021,0.019221 -0.00361,0.027454 -0.015052,0.021777 -0.07667,0.063163 -0.1051741,0.070221 -0.00805,0.00199 0.00143,-0.023224 -0.00302,-0.018057 -0.01407,0.016552 -0.01866,0.036339 -0.027981,0.05451 -0.066442,0.037699 -0.2007406,0.130488 -0.2736408,0.1489113 -0.010337,0.00261 -0.018601,-0.012578 -0.016537,-0.020243 0.00159,-0.00603 0.012325,0.00864 0.018509,0.012947 -0.024491,0.018113 -0.048991,0.036222 -0.07349,0.054333 -0.071392,0.043752 -0.029693,0.034619 -0.1262965,0.024416 -0.022209,0.013088 -0.00621,0.041235 -0.015841,0.060596 -0.047141,0.09457 -0.04827,-0.065298 -0.1327802,0.046205 -0.02421,0.017035 -0.0451798,0.036738 -0.0725806,0.051089 -0.12309614,0.064472 -0.0842353,0.031404 -0.17854318,0.06919 -0.0137457,0.00551 -0.0244626,0.014594 -0.0387436,0.019364 -0.0316245,0.01059 -0.0671496,0.014791 -0.0980194,0.02646 -0.004346,0.00165 0.00808,0.00398 0.012139,0.006 -0.0459877,0.043252 -0.12349235,0.065698 -0.2004137,0.063204 -0.0132524,-4.3e-4 0.0498791,-0.012862 0.0376638,-0.00916 -0.17713297,0.053488 -0.021135,0.00223 -0.11909788,0.03486 -0.0275368,0.00721 -0.0545239,0.015645 -0.0826354,0.021663 -0.0314969,0.00673 -0.0653801,0.00773 -0.0958426,0.016523 -0.0493757,0.014252 -0.09101241,0.041326 -0.14206128,0.052184 -0.04996469,0.010615 -0.10353182,0.00991 -0.15564894,0.011138 -0.028995,6.918e-4 -0.061753,-0.015871 -0.0867378,-0.00536 -0.0306411,0.01289 -0.0367853,0.043419 -0.0551809,0.065127 -0.0874893,0.024928 -0.0676177,0.027625 -0.128651,0.028784 -0.019488,3.699e-4 -0.0394853,-0.00276 -0.0584858,3.507e-4 -0.0334653,0.00551 -0.0645259,0.016778 -0.0967899,0.025184 0.0162552,-0.010424 0.0116029,-0.00562 -0.0244626,-8.115e-4 -0.12394912,3.275e-4 -0.0607822,-0.00287 -0.20811702,0.013827 -0.0268395,0.00303 -0.0533082,0.010447 -0.0804514,0.00945 -0.0680205,-0.00251 -0.10016724,-0.022203 -0.088725,-0.033639 0.005512,-0.00551 0.0189493,4.183e-4 0.0284555,6.266e-4 -0.0529181,0.043576 -0.0540616,0.053506 -0.15771185,0.072029 -0.022403,0.004 -0.045728,-0.00628 -0.068834,-0.00594 -0.054186,8.264e-4 -0.1089099,0.015729 -0.1639796,0.012804 -0.00139,-0.00996 0.00437,-0.021975 -0.00419,-0.029921 -0.029945,-0.027824 -0.2457777,0.047147 -0.2551097,0.03907 -0.017238,-0.014906 0.028867,-0.032716 0.043295,-0.049073 -0.1230679,0.056752 -0.2397096,0.079284 -0.090943,0.075379 0.010013,-2.629e-4 -0.019963,-0.00535 -0.029659,-0.00353 -0.028075,0.00529 -0.051679,0.020272 -0.08017,0.02422 -0.027758,0.00386 -0.058675,-0.00893 -0.084843,-0.00127 -0.032533,0.00951 -0.053036,0.032926 -0.079555,0.049387 -0.04639,0.029496 -0.1089858,0.075581 -0.1209004,0.047169 -0.00811,-0.019335 0.029469,-0.066643 0.046667,-0.050609 0.019773,0.018427 -0.012295,0.04673 -0.029881,0.066251 -0.00824,0.00914 -2.973e-4,-0.02172 -4.455e-4,-0.032581 -0.012167,0.019022 -0.024336,0.038069 -0.036507,0.057098 -0.065409,0.08922 0.021896,-0.00916 -0.1005602,0.059157 -0.015495,0.00862 -0.013403,0.028363 -0.029501,0.036409 -0.00691,0.00342 -0.014386,-0.021778 -0.010552,-0.016411 0.00732,0.010197 0.019329,0.019533 0.020977,0.030935 0.00147,0.010102 -0.00815,0.019477 -0.012199,0.029207 0.01296,0.00893 0.036926,0.014055 0.038827,0.02683 0.00173,0.01165 -0.025413,0.016355 -0.030737,0.027427 -0.00456,0.00942 0.00352,0.019873 0.00314,0.029847 -4.503e-4,0.011982 -0.00808,0.023849 -0.0056,0.035691 0.015559,0.074406 0.047744,0.010959 -0.012453,0.083742 -4.309e-4,0.012692 -0.00571,0.025751 -0.00129,0.038051 0.00163,0.00455 0.021357,0.010423 0.017364,0.00667 -0.027537,-0.025865 -0.1252194,-0.093437 -0.088532,-0.074194 0.037673,0.019761 0.08254,0.034141 0.1125761,0.059693 0.011883,0.010102 0.00269,0.026348 0.00403,0.039514 0.034416,0.047862 0.062792,0.084027 0.08998,0.133719 0.00434,0.00793 0.00377,0.017064 0.00887,0.024757 0.013277,0.020015 0.067818,0.060409 0.03677,0.061011 -0.039768,7.739e-4 -0.079364,-0.00406 -0.1190467,-0.00607 0.012517,-0.010447 0.01933,-0.026858 0.037562,-0.031353 0.014227,-0.00348 0.027283,0.00945 0.041964,0.011792 0.075552,0.011924 0.151913,-0.018256 0.2258272,0.00276 0.051587,-0.015218 0.045294,-0.022344 0.09741,-0.00347 0.014386,0.00519 0.023259,0.022514 0.039096,0.0203 0.017333,-0.00241 0.014608,-0.027512 0.031868,-0.030194 0.081513,-0.012634 -0.026681,0.060255 0.044163,0.00562 0.015527,5.11e-4 0.031985,0.00536 0.046555,0.00154 0.033694,-0.00889 0.057548,-0.040837 0.09332,-0.038441 0.1091856,0.0073 -0.08323,0.048466 -0.078632,0.045867 0.085864,-0.048593 0.076754,-0.00879 0.076002,-0.058413 0.19176,-0.1267146 -0.070619,0.02907 0.1535449,-0.048243 0.01182,-0.00409 -0.0046,-0.02331 0.00706,-0.027624 0.036988,-0.013628 0.1365921,-0.047618 0.121775,-0.019873 -0.1125355,0.2106127 -0.2094771,-0.025246 -0.1173932,0.1413571 0.00265,-0.042181 -0.00649,-0.085595 0.00795,-0.1265473 0.00269,-0.00763 0.069979,-0.037111 0.080813,-0.045412 0.043133,-0.033057 0.1163216,-0.091433 0.1460983,-0.1341192 0.016002,-0.036051 0.041095,-0.099487 0.0711509,-0.1262549 0.008306,-0.00741 0.0394601,-0.011531 0.039831,-0.00205 9.481e-4,0.024359 -0.0414729,0.043915 -0.0372644,0.068091 0.002744,0.015785 0.11044361,-0.060377 0.004153,-0.04763 -0.0100129,-0.025667 -0.0262052,-0.1267402 -0.017935,-0.144871 0.00976,-0.021437 0.0428506,-0.03359 0.0589548,-0.052993 0.008273,-0.00996 0.0227837,-0.042707 0.0128647,-0.033529 -0.0146082,0.013515 -0.0184736,0.03151 -0.0276945,0.047264 0.0479561,-0.061851 -0.003356,-0.061856 0.005227,-0.123444 0.003516,-0.025268 0.0343522,-0.046901 0.0337313,-0.07229 -5.447e-4,-0.022287 -0.024653,-0.040971 -0.0369984,-0.061459 8.6419e-4,-0.018739 0.001728,-0.037457 0.002593,-0.056185 0.001317,-0.021066 -0.001796,-0.042486 0.003927,-0.06316 0.004623,-0.016639 0.0182521,-0.031318 0.0266491,-0.047184 0.0110281,-0.020867 0.0192027,-0.042493 0.0315926,-0.062955 8.8097e-4,-0.00145 0.002928,0.00237 0.004371,0.00354 0.0147979,-0.017858 0.0295647,-0.035742 0.0443558,-0.053615 0.008841,-0.016212 0.008587,-0.034215 0.0128647,-0.051321 0.0209135,-0.021548 0.0638631,-0.056352 0.0296914,-0.086824 -0.0134361,-0.011982 -0.0470499,0.046687 -0.0266172,0.041901 0.0785662,-0.018398 0.0363079,-0.068281 0.0394098,-0.1011059 0.001854,-0.019704 0.0127381,-0.038431 0.0191079,-0.057646 -0.003423,-0.020214 -0.0253503,-0.043357 -0.0102663,-0.060659 0.0353187,-0.040533 0.0743643,0.1252326 0.0430763,-0.024133 -0.005227,-0.024928 -0.0354043,-0.049314 -0.0252236,-0.073449 0.0688192,-0.1629594 0.0994005,0.012464 0.0712901,-0.096094 -0.007417,0.028512 -0.0252236,0.05662 -0.0222132,0.085535 0.001267,0.012123 0.0208825,-0.019477 0.0279487,-0.030549 0.0305472,-0.047775 0.009671,-0.079133 -0.0217055,-0.1222031 0.00193,-0.010197 0.002635,-0.020527 0.005798,-0.030552 0.003297,-0.010423 0.0163828,-0.020074 0.0134638,-0.030546 -0.007727,-0.027569 -0.05333,-0.027653 -0.0382847,-0.061076 0.005638,-0.01255 0.0303878,-0.017829 0.0351979,-0.030543 0.00386,-0.01022 -0.008046,-0.020385 -0.01204,-0.030558 0.002886,-0.041058 0.005487,-0.02067 -0.008105,-0.061184 -0.006175,-0.1381224 0.019931,0.079522 0.0214522,-0.061085 6.88e-4,-0.062998 -0.0427214,0.00244 0.0140419,-0.060812 -0.057338,-0.063393 -0.0162242,0.00283 0.004145,-0.061085 0.007954,-0.025013 -0.0605305,-0.093914 -0.0269662,-0.1233504 0.0648045,-0.0677 0.009911,0.00951 -0.004245,-0.055437 -0.002316,-0.010673 0.0192975,-0.018482 0.0195828,-0.029283 3.1748e-4,-0.011792 -0.0170481,-0.021182 -0.0179039,-0.032942 -0.001032,-0.013913 0.0258562,-0.063158 0.0317537,-0.074869 0.002878,-0.012719 0.0117581,-0.025496 0.008656,-0.03819 -0.002651,-0.010816 -0.0257295,-0.038758 -0.0248426,-0.027795 0.009573,0.1197019 0.3701406,-0.00999 0.172776,0.070516 -0.0386555,0.00773 -0.0773143,0.015446 -0.11596941,0.02314 -0.0210729,-0.00562 -0.0412632,-0.020554 -0.0631726,-0.016921 -0.0188537,0.00313 -0.0173963,0.039177 -0.0348186,0.033147 -0.0927936,-0.032117 0.20600671,-0.095567 -0.0718229,-0.015813 0.0154632,0.00191 0.0364279,-0.0029 0.0463871,0.00574 0.006528,0.00568 -0.0164457,0.00891 -0.0254451,0.012408 -0.001754,6.819e-4 -0.12781475,0.059803 -0.17944314,0.055971 -0.0152417,-0.00114 -0.0286451,-0.00781 -0.0429588,-0.011734 -0.0142911,-1.99e-4 -0.028614,-3.976e-4 -0.0429177,-5.964e-4 -0.014259,0.00616 -0.026332,0.016523 -0.042779,0.018482 -0.014482,0.00174 -0.028487,-0.00519 -0.042553,-0.00825 -0.014291,-0.00309 -0.028962,-0.00564 -0.042499,-0.010137 -0.01502,-0.00497 -0.026174,-0.018283 -0.042759,-0.018113 -0.00815,7.47e-5 -0.083443,0.039431 -0.087369,0.041423 -0.014798,-0.00508 -0.028677,-0.011788 -0.044353,-0.015185 -0.014005,-0.00306 -0.030578,7.589e-4 -0.043631,-0.004 -0.016636,-0.00607 -0.023259,-0.030586 -0.041267,-0.027029 -0.022656,0.00449 -0.014766,0.037991 -0.037353,0.042621 -0.017175,0.00353 -0.025065,-0.018171 -0.037597,-0.027255 -0.012771,0.00568 -0.025572,0.011364 -0.038352,0.017035 -0.1562225,-0.032465 0.07508,0.00707 -0.111201,0.00999 -0.041621,6.556e-4 -0.07489,-0.027257 -0.1154469,-0.033962 -0.00919,-0.00152 -0.036355,0.00523 -0.028202,0.00183 0.029057,-0.012123 0.061778,-0.019135 0.092664,-0.028707 0.01071,-0.024672 0.021104,-0.049436 0.03209,-0.074056 0.00745,-0.016695 -0.020059,0.032764 -0.021452,0.050242 -0.00143,0.017886 0.00881,0.035257 0.013213,0.052886 -0.012771,0.00885 -0.036897,0.01394 -0.038301,0.026603 -0.00102,0.00926 0.022529,0.00934 0.033792,0.013997 -0.016066,0.021236 -0.032124,0.042471 -0.048187,0.063705 -0.010869,0.028825 -0.021769,0.057652 -0.032635,0.086477 -0.0059,-0.00968 -0.01147,-0.038582 -0.017713,-0.029015 -0.00808,0.012408 0.015463,0.027228 0.010299,0.040397 -0.0045,0.011471 -0.028075,0.01445 -0.035927,0.024956 -0.1161284,0.1559438 0.016224,0.046955 -0.1381511,0.1561112 -0.00681,0.018029 0.00558,0.05196 -0.02047,0.054105 -0.1109507,0.00914 -0.3343208,0.010673 -0.3210416,-0.068353 0.00259,-0.015445 0.033779,-0.023026 0.037268,-0.038395 0.00817,-0.035909 -0.06964,-0.068154 -0.022244,-0.1079794 0.023734,-0.025525 0.052164,-0.049112 0.071189,-0.076558 0.00267,-0.00386 -0.016351,-0.0042 -0.018062,-9.64e-5 -0.010362,0.024672 -0.011502,0.050931 -0.014101,0.076624 -0.00161,0.015985 0.00662,-0.031727 0.011154,-0.047426 0.043403,-0.1500725 0.019361,-0.023452 0.043456,-0.2103365 0.031339,-0.1563781 0.3416761,-0.1247838 0.3103282,0.031594 z"
       inkscape:connector-curvature="0" />
  </g>
</svg>
